<svg xmlns="http://www.w3.org/2000/svg" viewBox="0 0 512 512">
  <path fill="#0066B3" d="M0 0h512v512H0V0z"/>
  <path fill="#FFFFFF" d="M170.667 256C170.667 283.686 193.353 306.372 221.04 306.372h170.666C388.343 306.372 411.029 283.686 411.029 256C411.029 228.314 388.343 205.628 360.657 205.628h-170.666C193.353 205.628 170.667 228.314 170.667 256z"/>
  <path fill="#FF0000" d="M170.667 256C170.667 283.686 193.353 306.372 221.04 306.372h170.666C388.343 306.372 411.029 283.686 411.029 256C411.029 228.314 388.343 205.628 360.657 205.628h-170.666C193.353 205.628 170.667 228.314 170.667 256z"/>
  <path fill="#0066B3" d="M170.667 256C170.667 283.686 193.353 306.372 221.04 306.372h170.666C388.343 306.372 411.029 283.686 411.029 256C411.029 228.314 388.343 205.628 360.657 205.628h-170.666C193.353 205.628 170.667 228.314 170.667 256z"/>
  <path fill="#FFFFFF" d="M256 128C283.686 128 306.372 150.686 306.372 178.372V333.628C306.372 361.314 283.686 384 256 384C228.314 384 205.628 361.314 205.628 333.628V178.372C205.628 150.686 228.314 128 256 128z"/>
  <path fill="#FF0000" d="M256 128C283.686 128 306.372 150.686 306.372 178.372V333.628C306.372 361.314 283.686 384 256 384C228.314 384 205.628 361.314 205.628 333.628V178.372C205.628 150.686 228.314 128 256 128z"/>
  <path fill="#0066B3" d="M256 128C283.686 128 306.372 150.686 306.372 178.372V333.628C306.372 361.314 283.686 384 256 384C228.314 384 205.628 361.314 205.628 333.628V178.372C205.628 150.686 228.314 128 256 128z"/>
</svg>