<svg version="1.1" id="Layer_1" xmlns="http://www.w3.org/2000/svg" xmlns:xlink="http://www.w3.org/1999/xlink" x="0px" y="0px"
	 width="100%" viewBox="0 0 928 944" enable-background="new 0 0 928 944" xml:space="preserve">
<path fill="#2980b9" opacity="1.000000" stroke="none" 
	d="
M126.800598,710.844788 
	C144.806427,679.843018 162.572281,649.124268 180.472946,618.484253 
	C209.551895,568.710571 238.669174,518.959106 267.862946,469.252594 
	C297.647552,418.540161 327.592102,367.921661 357.376068,317.208893 
	C381.168945,276.697052 404.814880,236.098923 428.549988,195.553116 
	C435.451599,183.763367 442.414398,172.009216 449.407776,160.273682 
	C450.307434,158.763916 450.983154,156.953995 453.726654,155.880157 
	C569.803650,352.187897 685.036011,549.074707 800.210449,747.400757 
	C568.416199,747.400757 337.679810,747.400757 105.590195,747.400757 
	C112.872276,734.853271 119.746704,723.008240 126.800598,710.844788 
M609.458618,529.997986 
	C583.247131,485.319153 557.056458,440.628143 530.818237,395.965027 
	C506.013062,353.741241 481.164551,311.542908 456.297272,269.355682 
	C455.426727,267.878784 454.912933,265.847137 451.679932,265.669647 
	C368.533081,406.278107 285.888000,547.624329 202.647659,690.038818 
	C370.031830,690.038818 535.706238,690.038818 702.857727,690.038818 
	C671.395081,636.130554 640.608032,583.380005 609.458618,529.997986 
z"/>
<path fill="#add8e6" opacity="1.000000" stroke="none" 
	d="
M547.218384,565.835083 
	C556.459839,582.178345 566.347839,597.741150 575.244202,614.859070 
	C493.145782,614.859070 411.961792,614.859070 329.090546,614.859070 
	C370.297333,544.774597 411.023285,475.507843 452.614502,404.769501 
	C484.685974,459.369263 515.861267,512.443298 547.218384,565.835083 
M446.405609,517.862000 
	C439.328888,529.930908 432.220123,541.981201 425.192078,554.078369 
	C422.588348,558.560059 423.190094,559.780518 428.189362,559.807373 
	C444.517975,559.895081 460.847809,559.904236 477.176208,559.795410 
	C481.813019,559.764526 482.528992,558.296387 480.198700,554.274841 
	C473.100220,542.024353 465.976257,529.788391 458.806854,517.579346 
	C452.966797,507.634003 452.931458,507.654755 446.405609,517.862000 
z"/>
</svg>